<?xml version="1.0" encoding="utf-8"?>
<!-- Generator: Adobe Illustrator 24.1.3, SVG Export Plug-In . SVG Version: 6.00 Build 0)  -->
<svg version="1.1" id="Ebene_1" focusable="false" xmlns="http://www.w3.org/2000/svg" xmlns:xlink="http://www.w3.org/1999/xlink"
	 x="0px" y="0px" viewBox="0 0 512 512" style="enable-background:new 0 0 512 512;" xml:space="preserve">
<style type="text/css">
	.st0{fill:#555555;}
</style>
<path class="st0" d="M256,289c61.6,0,111.5-49.9,111.5-111.5S317.6,66,256,66s-111.5,49.9-111.5,111.5S194.4,289,256,289z
	 M334.1,316.9h-14.5c-19.3,8.9-40.9,13.9-63.5,13.9s-44.1-5.1-63.5-13.9H178c-64.6,0-117.1,52.4-117.1,117.1v36.2
	c0,23.1,18.7,41.8,41.8,41.8h306.6c23.1,0,41.8-18.7,41.8-41.8v-36.2C451.1,369.3,398.7,316.9,334.1,316.9z"/>
</svg>
